<svg xmlns="http://www.w3.org/2000/svg" viewBox="0 0 460 327.93"><defs><style>.a{fill:#9ecee2;}.a,.b,.c,.d,.e{stroke:#19688a;}.a,.b,.c,.d,.e,.f{stroke-miterlimit:10;}.a,.b,.c,.d{stroke-width:6px;}.b{fill:#6abfe2;}.c{fill:#38a2cf;}.d{fill:#0f98d1;}.e{fill:none;stroke-linecap:round;stroke-width:9px;}.f{fill:#f7931e;stroke:#915611;stroke-width:5px;}</style></defs><path class="a" d="M56.56,280.43H83.44A11.56,11.56,0,0,1,95,292v29.7a2.73,2.73,0,0,1-2.73,2.73H48.35A3.35,3.35,0,0,1,45,321.07V292A11.56,11.56,0,0,1,56.56,280.43Z"/><path class="b" d="M163.56,236.43h26.87A11.56,11.56,0,0,1,202,248v73.5a2.94,2.94,0,0,1-2.94,2.94H156.49a4.49,4.49,0,0,1-4.49-4.49V248A11.56,11.56,0,0,1,163.56,236.43Z"/><path class="c" d="M270.56,183.43h26.87A11.56,11.56,0,0,1,309,195V320.71a3.71,3.71,0,0,1-3.71,3.71H262.71a3.71,3.71,0,0,1-3.71-3.71V195A11.56,11.56,0,0,1,270.56,183.43Z"/><path class="d" d="M377.56,123.43h26.87A11.56,11.56,0,0,1,416,135V320.51a3.91,3.91,0,0,1-3.91,3.91H371.43A5.43,5.43,0,0,1,366,319V135A11.56,11.56,0,0,1,377.56,123.43Z"/><line class="e" x1="4.5" y1="323.43" x2="455.5" y2="323.43"/><path class="f" d="M47.67,260.44c-3.17-.51-5.59-21.39-5.92-23.3-1.25-7.21-2.5-9.55,1.38-12.66l89.31-71.73a15.09,15.09,0,0,1,20.69,1.65l.22.26,11.47,13.77a3.12,3.12,0,0,0,4.4.41l67.11-55.54a15.07,15.07,0,0,1,21.41,2.25L266,125.89a2.86,2.86,0,0,0,4.13.37L377.49,32.05a9,9,0,0,1,12.72.82c3.28,3.74,2.91,29.44-.83,32.72L277.46,163.81a15.08,15.08,0,0,1-21.76-1.95l-8.95-11.2a2,2,0,0,0-2.79-.29L176,206.59A15.08,15.08,0,0,1,155.21,205l-.22-.26-12.11-14.53a2.2,2.2,0,0,0-3.07-.31l-85.4,68.59C52.44,260.11,49.5,260.93,47.67,260.44Z"/><path class="f" d="M410.25,72.67,433.06,5.39a2.19,2.19,0,0,0-2.5-2.85L362.42,16.12a6.47,6.47,0,0,0-3.59,10.61l42,47.83A5.56,5.56,0,0,0,410.25,72.67Z"/></svg>