<svg xmlns="http://www.w3.org/2000/svg" viewBox="0 0 381.89 426.51"><defs><style>.a{fill:#333;stroke:#000;opacity:0.23;}.a,.b{stroke-miterlimit:10;}.b{fill:#f7f15f;stroke:#b5b500;stroke-width:3px;}.c{font-size:80px;font-family:SegoePrint-Bold, Segoe Print;font-weight:700;letter-spacing:-0.04em;}</style></defs><path class="a" d="M40.77,8.55C4.54,151.62-5.27,290.35,3.52,426c111.88-.08,227.8-5.61,347-15.55-31.42-120.52-31.36-248.84-15.81-381Z"/><path class="b" d="M24.27,1.6C10.07,139.69,5.93,271.43,16.48,393.91c109.89,5.45,227,7.12,363.67-1.39C360.92,271.8,350.92,149.27,367.39,23.58,247.63,17.12,135.33,9.46,24.27,1.6Z"/><text class="c" transform="matrix(1.06, 0.05, -0.05, 1, 31.29, 104.63)">practice<tspan x="60.25" y="105">daily</tspan></text><path d="M74.47,249.24A681.49,681.49,0,0,1,151.69,247q19.19.54,38.32,2.15,9.5.81,19,1.87c6.48.73,12.48,1.49,18.4,2.33q21.39,3,42.57,7.47c2.3.48,5-.67,5.54-3.14.51-2.25-.68-5-3.14-5.54a686.73,686.73,0,0,0-154.48-14.25q-21.72.47-43.39,2.33c-2.34.2-4.62,1.92-4.5,4.5.1,2.26,2,4.71,4.5,4.5Z"/><path d="M74.65,270.75a683.82,683.82,0,0,1,77.22-2.21q19.19.54,38.33,2.15,9.48.8,19,1.86c6.48.73,12.49,1.5,18.4,2.34q21.4,3,42.58,7.47c2.29.48,5-.67,5.53-3.15.51-2.25-.68-5-3.14-5.53a685.17,685.17,0,0,0-154.47-14.25q-21.73.46-43.4,2.32c-2.34.2-4.61,1.93-4.5,4.5.1,2.27,2,4.71,4.5,4.5Z"/></svg>